<?xml version="1.0" encoding="UTF-8" standalone="no"?>
<svg width="703px" height="155px" viewBox="0 0 703 155" version="1.1" xmlns="http://www.w3.org/2000/svg" xmlns:xlink="http://www.w3.org/1999/xlink" xmlns:sketch="http://www.bohemiancoding.com/sketch/ns">
    <!-- Generator: sketchtool 3.5.1 (25234) - http://www.bohemiancoding.com/sketch -->
    <title>logo-wite</title>
    <desc>Created with sketchtool.</desc>
    <defs>
        <path id="path-1" d="M0,0.511 L702.133,0.511 L702.133,154 L0,154"></path>
    </defs>
    <g id="Page-1" stroke="none" stroke-width="1" fill="none" fill-rule="evenodd" sketch:type="MSPage">
        <g id="logo-wite" sketch:type="MSArtboardGroup">
            <g id="Page-1" sketch:type="MSLayerGroup">
                <g id="Group-3">
                    <mask id="mask-2" sketch:name="Clip 2" fill="white">
                        <use xlink:href="#path-1"></use>
                    </mask>
                    <g id="Clip-2"></g>
                    <path d="M682.1591,16.847 C671.9301,6.466 657.8391,0.511 643.4971,0.511 C627.2691,0.511 616.8061,6.618 610.8751,11.755 C607.3051,8.622 603.4361,6.116 600.3051,4.328 L594.1271,0.798 L582.1511,20.39 L588.3051,24.236 C594.5921,28.165 595.8551,33.029 595.8551,39.603 L595.8551,112.084 C595.8551,118.657 594.5921,123.521 588.3051,127.45 L582.1521,131.296 L594.1271,150.891 L600.3061,147.359 C603.4531,145.56 607.3461,143.038 610.9301,139.882 C616.9061,145.009 627.4321,151.175 643.4971,151.175 C657.8391,151.175 671.9301,145.221 682.1591,134.839 C695.4131,121.388 702.1331,101.539 702.1331,75.844 C702.1331,50.148 695.4131,30.3 682.1591,16.847 M643.4971,142.216 C621.9871,142.216 613.2991,129.959 612.9461,129.446 L611.2441,126.93 L609.1511,129.132 C605.7781,132.681 602.0441,135.682 597.5291,138.46 L594.6551,133.598 C602.3771,128.081 606.4421,120.685 606.4421,112.084 L606.4421,39.603 C606.4421,31.001 602.3771,23.606 594.6551,18.09 L597.5411,13.205 C602.1461,15.91 606.3421,18.731 608.9451,22.309 L611.0391,25.188 L612.9721,22.199 C613.0551,22.072 621.4631,9.471 643.4971,9.471 C648.4151,9.471 691.5451,11.333 691.5451,75.844 C691.5451,140.354 648.4151,142.216 643.4971,142.216" id="Fill-1" fill="#FFFFFF" sketch:type="MSShapeGroup" mask="url(#mask-2)"></path>
                </g>
                <path d="M643.4974,13.949 C623.3084,13.949 612.1424,25.988 612.1424,34.309 L612.1424,117.377 C612.1424,125.678 624.3574,137.737 643.4974,137.737 C655.4954,137.737 683.4024,131.706 683.4024,75.844 C683.4024,19.98 655.4954,13.949 643.4974,13.949 M643.4974,128.778 C629.5604,128.778 622.8464,119.705 622.7304,117.377 L622.7304,34.309 C622.7304,33.41 623.7864,30.693 627.0554,28.029 C629.9214,25.693 635.1004,22.908 643.4974,22.908 C662.1294,22.908 672.8154,42.202 672.8154,75.844 C672.8154,109.484 662.1294,128.778 643.4974,128.778" id="Fill-4" fill="#FFFFFF" sketch:type="MSShapeGroup"></path>
                <path d="M539.9278,4.529 C535.8428,6.863 533.0628,8.826 530.1268,11.28 C527.1908,8.826 524.4108,6.863 520.3258,4.529 L514.1458,0.998 L502.1728,20.592 L508.3258,24.438 C514.0318,28.003 516.6888,32.887 516.6888,39.804 L516.6888,110.431 C516.6888,124.283 508.2408,131.604 492.2568,131.604 C475.9778,131.604 467.0108,124.085 467.0108,110.431 L467.0108,39.804 C467.0108,32.887 469.6688,28.004 475.3748,24.438 L481.5288,20.592 L469.5538,0.997 L463.3748,4.529 C459.2888,6.864 456.5098,8.826 453.5738,11.28 C450.6378,8.826 447.8578,6.863 443.7728,4.529 L437.5928,0.998 L425.6198,20.592 L431.7728,24.438 C437.4788,28.003 440.1358,32.887 440.1358,39.804 L440.1358,109.209 C440.1358,136.418 460.5948,154 492.2568,154 C523.4248,154 543.5648,136.418 543.5648,109.209 L543.5648,39.804 C543.5648,32.887 546.2218,28.003 551.9278,24.438 L558.0808,20.592 L546.1068,0.998 L539.9278,4.529 Z M532.9768,39.804 L532.9768,109.209 C532.9768,138.825 510.8338,145.041 492.2568,145.041 C465.4738,145.041 450.7238,132.316 450.7238,109.209 L450.7238,39.804 C450.7238,34.959 449.0298,25.954 438.1268,18.283 L440.9998,13.419 C445.1638,15.942 448.2938,18.412 451.6708,22.605 L453.5488,24.937 L455.4568,22.629 C458.5408,18.9 461.6578,16.199 466.1528,13.427 L469.0218,18.283 C458.1178,25.952 456.4238,34.959 456.4238,39.804 L456.4238,110.431 C456.4238,129.017 470.1548,140.564 492.2568,140.564 C514.1848,140.564 527.2768,129.299 527.2768,110.431 L527.2768,39.854 C527.2768,34.992 525.5828,25.956 514.6788,18.283 L517.5478,13.427 C522.2698,16.333 525.4478,19.079 528.2068,22.584 L530.0688,24.949 L532.0008,22.64 C535.2878,18.709 538.1648,16.201 542.7038,13.424 L545.5748,18.283 C534.6708,25.952 532.9768,34.959 532.9768,39.804 L532.9768,39.804 Z" id="Fill-6" fill="#FFFFFF" sketch:type="MSShapeGroup"></path>
                <path d="M404.2677,15.5298 L387.9637,1.2638 L383.2107,4.8278 C381.4777,6.1288 379.7467,7.8298 378.1857,9.7148 C369.7967,3.8548 358.9637,0.5118 347.7027,0.5118 C331.6377,0.5118 321.1117,6.6768 315.1357,11.8048 C311.5507,8.6488 307.6567,6.1268 304.5107,4.3278 L298.3327,0.7978 L286.3567,20.3898 L292.5117,24.2368 C298.7977,28.1648 300.0597,33.0288 300.0597,39.6028 L300.0597,112.0838 C300.0597,118.6578 298.7977,123.5208 292.5117,127.4498 L286.3577,131.2948 L298.3327,150.8908 L304.5117,147.3588 C307.6577,145.5598 311.5517,143.0378 315.1357,139.8818 C321.1117,145.0088 331.6377,151.1748 347.7027,151.1748 C358.9637,151.1748 369.7967,147.8318 378.1857,141.9718 C379.7467,143.8558 381.4767,145.5578 383.2097,146.8588 L387.9637,150.4248 L404.2677,136.1558 L399.8107,130.6708 C396.4357,126.5188 395.3547,120.2158 396.5047,111.4038 L397.4817,103.9148 L374.8027,101.6448 L373.8327,108.6318 C372.1067,121.0588 362.0947,128.7778 347.7027,128.7778 C333.7657,128.7778 327.0517,119.7048 326.9357,117.3778 L326.9357,87.6518 L333.4507,87.6518 C337.4237,87.6518 343.8317,90.4818 348.8167,98.4588 L352.6627,104.6118 L372.2547,92.6398 L368.7257,86.4598 C366.9287,83.3158 364.4097,79.4258 361.2567,75.8438 C364.4097,72.2608 366.9287,68.3718 368.7257,65.2278 L372.2557,59.0488 L352.6637,47.0738 L348.8167,53.2268 C343.8317,61.2038 337.4237,64.0348 333.4507,64.0348 L326.9357,64.0348 L326.9357,34.3228 C327.0517,31.9818 333.7657,22.9078 347.7027,22.9078 C362.0947,22.9078 372.1067,30.6278 373.8327,43.0538 L374.8027,50.0408 L397.4817,47.7738 L396.5047,40.2838 C395.3547,31.4718 396.4357,25.1678 399.8107,21.0148 L404.2677,15.5298 Z M386.5327,39.0238 L382.2887,39.4108 C379.0337,24.5248 364.8747,13.9488 347.7027,13.9488 C328.5627,13.9488 316.3477,26.0078 316.3477,34.3088 L316.3477,73.7738 L333.4507,73.7738 C341.2347,73.7738 348.9577,68.1678 354.9167,59.6658 L359.0627,62.3618 C355.9237,67.4448 352.5127,71.3978 349.1167,73.8678 L346.3987,75.8438 L349.1167,77.8198 C352.4787,80.2638 355.8567,84.1628 358.9687,89.1728 L355.0117,91.3488 C347.3317,80.3918 338.3037,77.8798 333.4507,77.8798 L316.3477,77.8798 L316.3477,117.3778 C316.3477,125.6788 328.5627,137.7368 347.7027,137.7368 C364.0057,137.7368 378.9817,126.5118 382.2737,112.2748 L386.5327,112.6618 C385.6777,121.9508 387.0897,129.2778 390.8277,134.9298 L387.5637,137.7868 C385.5677,135.9608 383.8037,133.6188 381.9977,130.4258 L380.3297,127.4808 L378.0597,129.9898 C371.1327,137.6458 359.7847,142.2158 347.7027,142.2158 C326.1937,142.2158 317.5037,129.9588 317.1507,129.4458 L315.4537,126.9378 L313.3617,129.1258 C309.8897,132.7558 306.2407,135.6928 301.7337,138.4608 L298.8597,133.5978 C306.5837,128.0808 310.6487,120.6848 310.6487,112.0838 L310.6487,39.6028 C310.6487,30.1168 306.9667,22.6278 299.6957,17.3058 L301.7157,14.0038 C306.3437,16.7338 310.1627,19.3438 313.3947,22.5948 L315.4867,24.6998 L317.1507,22.2408 C317.2367,22.1138 326.0407,9.4708 347.7027,9.4708 C359.7847,9.4708 371.1327,14.0408 378.0597,21.6968 L380.3427,24.2208 L382.0027,21.2488 C383.5057,18.5608 385.6907,15.7108 387.5707,13.9058 L390.8277,16.7568 C387.0897,22.4088 385.6777,29.7368 386.5327,39.0238 L386.5327,39.0238 Z" id="Fill-8" fill="#FFFFFF" sketch:type="MSShapeGroup"></path>
                <path d="M237.922,102.9688 L229.072,86.1538 C237.145,80.7648 248.946,69.1558 248.946,47.3388 C248.946,33.3368 243.208,20.8978 232.789,12.3128 C223.552,4.7028 211.359,0.5118 198.454,0.5118 C182.389,0.5118 171.863,6.6768 165.887,11.8048 C162.303,8.6488 158.409,6.1268 155.263,4.3278 L149.084,0.7958 L137.109,20.3918 L143.263,24.2368 C149.549,28.1658 150.811,33.0288 150.811,39.6028 L150.811,112.0838 C150.811,118.6568 149.549,123.5208 143.263,127.4498 L137.109,131.2948 L149.084,150.8898 L155.263,147.3578 C159.348,145.0238 162.127,143.0618 165.064,140.6058 C168,143.0608 170.779,145.0238 174.864,147.3578 L181.044,150.8898 L193.018,131.2958 L186.865,127.4498 C179.279,122.7068 177.687,116.4758 177.687,112.0838 L177.687,93.3528 L206.706,93.3528 L220.872,119.5568 C221.425,120.6138 223.109,123.8288 217.053,128.0678 L211.024,132.2878 L224.08,150.7798 L229.914,147.2798 C233.157,145.3338 235.926,143.3438 238.256,141.2758 C242.26,144.0548 246.89,146.4068 251.515,147.9468 L257.285,149.8708 L268.147,130.3198 L260.975,127.0098 C247.314,120.7048 241.429,109.5928 237.922,102.9688 L237.922,102.9688 Z M252.771,138.0148 C247.634,136.0188 242.69,132.9128 239.272,129.4938 L237.212,127.4358 L235.543,129.8208 C233.676,132.4878 230.729,135.1398 226.768,137.7238 L223.839,133.7488 C232.266,126.8298 231.228,119.8208 228.699,114.9938 L211.719,83.5788 L167.099,83.5788 L167.099,112.0838 C167.099,119.8678 171.925,127.5908 180.426,133.5498 L177.728,137.7008 C173.576,135.1558 170.972,132.9158 166.715,129.0128 L165.064,127.4998 L163.413,129.0128 C159.185,132.8888 156.587,135.1248 152.486,137.6468 L149.617,132.7918 C157.54,127.2338 161.4,120.4398 161.4,112.0838 L161.4,39.6028 C161.4,30.1168 157.718,22.6268 150.447,17.3058 L152.532,13.8948 C158.123,16.7758 160.516,18.3538 164.201,21.8338 L166.22,23.7248 L167.856,21.4918 C168.216,21.0018 176.911,9.4708 198.454,9.4708 C218.193,9.4708 239.173,22.7428 239.173,47.3388 C239.173,72.9128 219.983,80.5758 219.173,80.8868 L216.586,81.8638 L230.092,107.5258 C233.045,113.1028 239.767,125.8018 255.257,133.8728 L252.771,138.0148 Z" id="Fill-10" fill="#FFFFFF" sketch:type="MSShapeGroup"></path>
                <path d="M233.4733,47.3394 C233.4733,31.1534 221.2003,13.9494 198.4543,13.9494 C179.3143,13.9494 167.0993,26.0084 167.0993,34.3094 L167.0993,79.5084 L203.7473,79.5084 C221.8053,79.5084 233.4733,66.8814 233.4733,47.3394 M207.0043,69.7354 L177.6863,69.7354 L177.6863,34.3234 C177.8033,31.9824 184.5173,22.9074 198.4543,22.9074 C217.0883,22.9074 223.7003,36.0684 223.7003,47.3394 C223.7003,58.3484 217.4553,69.7354 207.0043,69.7354" id="Fill-12" fill="#FFFFFF" sketch:type="MSShapeGroup"></path>
                <path d="M96.852,4.8288 C95.118,6.1288 93.388,7.8308 91.828,9.7148 C83.437,3.8558 72.605,0.5118 61.345,0.5118 C45.279,0.5118 34.754,6.6778 28.778,11.8058 C25.194,8.6488 21.3,6.1268 18.154,4.3288 L11.974,0.7968 L0,20.3918 L6.154,24.2368 C12.44,28.1668 13.703,33.0298 13.703,39.6038 L13.703,112.0848 C13.703,118.6578 12.44,123.5198 6.154,127.4498 L0,131.2948 L11.974,150.8908 L18.154,147.3578 C22.239,145.0228 25.019,143.0618 27.955,140.6068 C30.89,143.0618 33.671,145.0238 37.756,147.3578 L43.935,150.8898 L55.909,131.2948 L49.756,127.4498 C42.17,122.7088 40.578,116.4778 40.578,112.0848 L40.578,87.6528 L47.093,87.6528 C51.065,87.6528 57.473,90.4828 62.459,98.4588 L66.304,104.6128 L85.9,92.6388 L82.368,86.4588 C80.571,83.3158 78.051,79.4258 74.899,75.8438 C78.052,72.2618 80.572,68.3718 82.368,65.2278 L85.899,59.0488 L66.304,47.0758 L62.459,53.2278 C57.473,61.2048 51.065,64.0348 47.093,64.0348 L40.578,64.0348 L40.578,34.3238 C40.694,31.9828 47.408,22.9078 61.345,22.9078 C75.518,22.9078 85.774,30.8158 87.474,43.0538 L88.445,50.0408 L111.124,47.7728 L110.147,40.2838 C108.997,31.4718 110.079,25.1688 113.453,21.0148 L117.909,15.5318 L101.606,1.2628 L96.852,4.8288 Z M100.174,39.0238 L95.946,39.4088 C92.727,23.6398 79.676,13.9498 61.345,13.9498 C42.205,13.9498 29.99,26.0088 29.99,34.3098 L29.99,73.8088 L47.093,73.8088 C54.607,73.8088 62.339,68.6888 68.567,59.6708 L72.706,62.3618 C69.567,67.4448 66.154,71.3978 62.758,73.8668 L60.041,75.8438 L62.758,77.8198 C66.153,80.2888 69.566,84.2418 72.706,89.3258 L68.567,92.0158 C62.339,82.9988 54.607,77.8798 47.093,77.8798 L29.99,77.8798 L29.99,112.0848 C29.99,119.8948 34.846,127.6418 43.4,133.6088 L40.55,138.4318 C37.43,136.3908 35.179,134.2598 32.453,131.6788 C31.562,130.8358 30.628,129.9518 29.606,129.0138 L27.955,127.5008 L26.303,129.0138 C25.282,129.9508 24.348,130.8348 23.458,131.6768 C20.731,134.2588 18.48,136.3898 15.359,138.4318 L12.502,133.5978 C20.225,128.0808 24.29,120.6858 24.29,112.0848 L24.29,39.6038 C24.29,30.1178 20.608,22.6278 13.338,17.3058 L15.416,13.9068 C19.969,16.3628 23.441,18.9718 27.035,22.5928 L29.116,24.6758 L30.787,22.2488 C31.146,21.7278 39.836,9.4718 61.345,9.4718 C74.075,9.4718 85.14,13.6308 91.701,20.8828 L94.18,23.6228 L95.731,20.2698 C96.945,17.6408 99.025,15.0598 100.95,13.6768 L104.47,16.7578 C100.733,22.4098 99.319,29.7378 100.174,39.0238 L100.174,39.0238 Z" id="Fill-14" fill="#FFFFFF" sketch:type="MSShapeGroup"></path>
            </g>
        </g>
    </g>
</svg>